<svg width="36" height="36" viewBox="0 0 36 36" fill="none" xmlns="http://www.w3.org/2000/svg">
<path d="M19.5935 28.1951C19.9837 28.2277 20.4065 28.2277 20.7968 28.2277C28.9919 28.2277 35.8537 22.6667 35.8537 14.1138C35.8537 13.3984 35.7886 12.7155 35.6911 12.0651L19.5935 28.1951Z" fill="white"/>
<path d="M29.8699 2.69919C27.3333 0.97561 24.1789 0 20.7968 0C12.6016 0 5.73984 5.69106 5.73984 14.1138C5.73984 17.8537 7.04065 21.0081 9.21951 23.3821L1.15447 31.4472C0.89431 31.7073 0.89431 32.0976 1.15447 32.3577L4.60163 35.8049C4.86179 36.065 5.25203 36.065 5.5122 35.8049L16.8293 24.4878L18.5528 22.7642C16.4065 22.2439 14.5528 21.0407 13.3821 19.2195C12.4715 17.8211 11.9187 16.0976 11.9187 14.1138C11.9187 8.61789 15.9837 5.20325 20.7968 5.20325C22.6829 5.20325 24.4715 5.72358 25.9024 6.69919C27.626 7.8374 28.9268 9.62602 29.4146 11.9024L34.065 7.25203C33.0569 5.43089 31.626 3.90244 29.8699 2.69919Z" fill="#F009FE"/>
</svg>
