<svg width="120" height="36" viewBox="0 0 120 36" fill="none" xmlns="http://www.w3.org/2000/svg">
<g clip-path="url(#clip0_2_137)">
<path d="M6.17886 19.3822C6.17886 21.561 8 23.0244 10.5366 23.0244C13.9837 23.0244 15.5772 21.0082 15.5772 17.7887V1.00817C15.5772 0.748005 15.8374 0.455322 16.1301 0.455322H21.2358C21.4959 0.455322 21.7886 0.715485 21.7886 1.00817V17.7561C21.7886 23.9025 18.1789 28.2277 10.5366 28.2277C3.38211 28.2277 0 24.0976 0 20.1301V18.7317C0 18.4065 0.357724 18.0163 0.780488 18.0163H5.56098C5.82114 18.0163 6.21138 18.374 6.21138 18.6667V19.3822H6.17886Z" fill="white"/>
<path d="M64.683 27.7724C64.4228 27.7724 64.1301 27.5122 64.1301 27.2195V1.00817C64.1301 0.748005 64.3903 0.455322 64.683 0.455322H78.6667C84.8456 0.455322 88.1301 3.73988 88.1301 7.96752C88.1301 10.1464 87.2521 11.87 85.7561 13.1057V13.2033C87.9025 14.5691 89.1708 16.748 89.1708 19.5773C89.1708 24.813 85.3334 27.7724 78.7968 27.7724H64.683V27.7724ZM70.3415 5.65857V11.2195H78.2765C81.0082 11.2195 81.9513 9.95126 81.9513 8.48784C81.9513 6.92687 80.7155 5.65857 77.8212 5.65857H70.3415V5.65857ZM78.1464 22.5691C81.5935 22.5691 82.9594 21.4635 82.9594 19.2846C82.9594 17.2683 81.3984 15.9025 77.9838 15.9025H70.2765V22.5366H78.1464V22.5691Z" fill="white"/>
<path d="M99.4146 18.5691C99.9674 18.5691 100.228 18.7967 100.325 19.252C100.78 21.561 102.732 23.0244 107.057 23.0244C111.415 23.0244 113.398 21.3984 113.398 19.4146C113.398 18.1463 112.488 17.0081 109.756 16.7805L102.667 16.1951C97.1056 15.7398 94.1463 13.2033 94.1463 9.10569C94.1463 4.35772 98.2764 0 106.341 0C114.667 0 118.309 3.86992 118.309 8.22764C118.309 8.65041 117.984 9.00813 117.431 9.00813H112.911C112.455 9.00813 112.195 8.87805 112.098 8.3252C111.837 6.73171 110.276 5.17073 106.276 5.17073C102.439 5.17073 100.325 6.73171 100.325 8.71545C100.325 9.95122 101.138 10.8618 103.642 11.0244L110.699 11.6098C117.073 12.1626 119.577 15.3496 119.577 19.122C119.577 23.4146 115.902 28.1951 107.057 28.1951C98.7317 28.1951 94.1138 24.2276 94.1138 19.7398V19.3821C94.1138 18.9268 94.4715 18.5691 94.9918 18.5691H99.4146V18.5691Z" fill="white"/>
<path d="M41.5935 28.1951C41.9837 28.2277 42.4065 28.2277 42.7968 28.2277C50.9919 28.2277 57.8537 22.6667 57.8537 14.1138C57.8537 13.3984 57.7886 12.7155 57.6911 12.0651L41.5935 28.1951Z" fill="white"/>
<path d="M51.8699 2.69919C49.3333 0.97561 46.1789 0 42.7968 0C34.6016 0 27.7398 5.69106 27.7398 14.1138C27.7398 17.8537 29.0407 21.0081 31.2195 23.3821L23.1545 31.4472C22.8943 31.7073 22.8943 32.0976 23.1545 32.3577L26.6016 35.8049C26.8618 36.065 27.252 36.065 27.5122 35.8049L38.8293 24.4878L40.5528 22.7642C38.4065 22.2439 36.5528 21.0407 35.3821 19.2195C34.4715 17.8211 33.9187 16.0976 33.9187 14.1138C33.9187 8.61789 37.9837 5.20325 42.7968 5.20325C44.6829 5.20325 46.4715 5.72358 47.9024 6.69919C49.626 7.8374 50.9268 9.62602 51.4146 11.9024L56.065 7.25203C55.0569 5.43089 53.626 3.90244 51.8699 2.69919Z" fill="#F009FE"/>
</g>
<defs>
<clipPath id="clip0_2_137">
<rect width="119.577" height="36" fill="white"/>
</clipPath>
</defs>
</svg>
